<?xml version="1.0" encoding="UTF-8" standalone="no"?>
<!-- Created with Inkscape (http://www.inkscape.org/) -->

<svg
   width="528.646mm"
   height="262.02078mm"
   viewBox="0 0 528.646 262.02078"
   version="1.1"
   id="svg1"
   sodipodi:docname="mvfs logo.svg"
   inkscape:export-filename="../Code/Personal/moj-valley/mojave-valley-fin/public/mvfslogo.svg"
   inkscape:export-xdpi="96"
   inkscape:export-ydpi="96"
   xmlns:inkscape="http://www.inkscape.org/namespaces/inkscape"
   xmlns:sodipodi="http://sodipodi.sourceforge.net/DTD/sodipodi-0.dtd"
   xmlns="http://www.w3.org/2000/svg"
   xmlns:svg="http://www.w3.org/2000/svg">
  <sodipodi:namedview
     id="namedview1"
     pagecolor="#898989"
     bordercolor="#000000"
     borderopacity="0.25"
     inkscape:showpageshadow="2"
     inkscape:pageopacity="0.0"
     inkscape:pagecheckerboard="0"
     inkscape:deskcolor="#d1d1d1"
     inkscape:document-units="mm"
     inkscape:zoom="0.12538756"
     inkscape:cx="1973.8801"
     inkscape:cy="522.38039"
     inkscape:window-width="1360"
     inkscape:window-height="736"
     inkscape:window-x="0"
     inkscape:window-y="32"
     inkscape:window-maximized="1"
     inkscape:current-layer="layer1" />
  <defs
     id="defs1">
    <clipPath
       clipPathUnits="userSpaceOnUse"
       id="clipPath97">
      <path
         d="M 0,500 H 500 V 0 H 0 Z"
         transform="translate(-409.94261,-246.39941)"
         id="path97" />
    </clipPath>
    <clipPath
       clipPathUnits="userSpaceOnUse"
       id="clipPath99">
      <path
         d="M 0,500 H 500 V 0 H 0 Z"
         transform="translate(-175.5637,-280.7313)"
         id="path99" />
    </clipPath>
    <clipPath
       clipPathUnits="userSpaceOnUse"
       id="clipPath101">
      <path
         d="M 0,500 H 500 V 0 H 0 Z"
         transform="translate(-181.1545,-274.2558)"
         id="path101" />
    </clipPath>
    <clipPath
       clipPathUnits="userSpaceOnUse"
       id="clipPath103">
      <path
         d="M 0,500 H 500 V 0 H 0 Z"
         transform="translate(-145.44681,-261.56591)"
         id="path103" />
    </clipPath>
    <clipPath
       clipPathUnits="userSpaceOnUse"
       id="clipPath105">
      <path
         d="M 0,500 H 500 V 0 H 0 Z"
         transform="translate(-125.1376,-256.2465)"
         id="path105" />
    </clipPath>
    <clipPath
       clipPathUnits="userSpaceOnUse"
       id="clipPath107">
      <path
         d="M 0,500 H 500 V 0 H 0 Z"
         transform="translate(-285.7231,-305.15261)"
         id="path107" />
    </clipPath>
    <clipPath
       clipPathUnits="userSpaceOnUse"
       id="clipPath109">
      <path
         d="M 0,500 H 500 V 0 H 0 Z"
         transform="translate(-296.93971,-276.79911)"
         id="path109" />
    </clipPath>
    <clipPath
       clipPathUnits="userSpaceOnUse"
       id="clipPath111">
      <path
         d="M 0,500 H 500 V 0 H 0 Z"
         transform="translate(-317.58991,-279.34631)"
         id="path111" />
    </clipPath>
    <clipPath
       clipPathUnits="userSpaceOnUse"
       id="clipPath113">
      <path
         d="M 0,500 H 500 V 0 H 0 Z"
         transform="translate(-302.34161,-280.4436)"
         id="path113" />
    </clipPath>
    <clipPath
       clipPathUnits="userSpaceOnUse"
       id="clipPath115">
      <path
         d="M 0,500 H 500 V 0 H 0 Z"
         transform="translate(-227.53461,-330.43011)"
         id="path115" />
    </clipPath>
    <clipPath
       clipPathUnits="userSpaceOnUse"
       id="clipPath117">
      <path
         d="M 0,500 H 500 V 0 H 0 Z"
         transform="translate(-225.76701,-316.81881)"
         id="path117" />
    </clipPath>
    <clipPath
       clipPathUnits="userSpaceOnUse"
       id="clipPath119">
      <path
         d="M 0,500 H 500 V 0 H 0 Z"
         transform="translate(-252.85231,-355.07471)"
         id="path119" />
    </clipPath>
    <clipPath
       clipPathUnits="userSpaceOnUse"
       id="clipPath121">
      <path
         d="M 0,500 H 500 V 0 H 0 Z"
         transform="translate(-295.77001,-330.38771)"
         id="path121" />
    </clipPath>
    <clipPath
       clipPathUnits="userSpaceOnUse"
       id="clipPath123">
      <path
         d="M 0,500 H 500 V 0 H 0 Z"
         transform="translate(-328.19671,-292.55391)"
         id="path123" />
    </clipPath>
    <clipPath
       clipPathUnits="userSpaceOnUse"
       id="clipPath125">
      <path
         d="M 0,500 H 500 V 0 H 0 Z"
         transform="translate(-330.54641,-300.13521)"
         id="path125" />
    </clipPath>
    <clipPath
       clipPathUnits="userSpaceOnUse"
       id="clipPath127">
      <path
         d="M 0,500 H 500 V 0 H 0 Z"
         transform="translate(-339.43951,-271.4121)"
         id="path127" />
    </clipPath>
    <clipPath
       clipPathUnits="userSpaceOnUse"
       id="clipPath129">
      <path
         d="M 0,500 H 500 V 0 H 0 Z"
         transform="translate(-399.01551,-247.4751)"
         id="path129" />
    </clipPath>
    <clipPath
       clipPathUnits="userSpaceOnUse"
       id="clipPath131">
      <path
         d="M 0,500 H 500 V 0 H 0 Z"
         transform="translate(-369.51721,-252.8181)"
         id="path131" />
    </clipPath>
    <clipPath
       clipPathUnits="userSpaceOnUse"
       id="clipPath133">
      <path
         d="M 0,500 H 500 V 0 H 0 Z"
         transform="translate(-284.61061,-276.69501)"
         id="path133" />
    </clipPath>
    <clipPath
       clipPathUnits="userSpaceOnUse"
       id="clipPath135">
      <path
         d="M 0,500 H 500 V 0 H 0 Z"
         transform="translate(-251.8156,-259.5135)"
         id="path135" />
    </clipPath>
    <clipPath
       clipPathUnits="userSpaceOnUse"
       id="clipPath137">
      <path
         d="M 0,500 H 500 V 0 H 0 Z"
         transform="translate(-238.00111,-250.6614)"
         id="path137" />
    </clipPath>
    <clipPath
       clipPathUnits="userSpaceOnUse"
       id="clipPath139">
      <path
         d="M 0,500 H 500 V 0 H 0 Z"
         transform="translate(-197.013,-251.9787)"
         id="path139" />
    </clipPath>
    <clipPath
       clipPathUnits="userSpaceOnUse"
       id="clipPath141">
      <path
         d="M 0,500 H 500 V 0 H 0 Z"
         transform="translate(-243.21291,-321.92841)"
         id="path141" />
    </clipPath>
    <clipPath
       clipPathUnits="userSpaceOnUse"
       id="clipPath143">
      <path
         d="M 0,500 H 500 V 0 H 0 Z"
         transform="translate(-313.48571,-354.14821)"
         id="path143" />
    </clipPath>
    <clipPath
       clipPathUnits="userSpaceOnUse"
       id="clipPath145">
      <path
         d="M 0,500 H 500 V 0 H 0 Z"
         transform="translate(-205.9903,-370.93631)"
         id="path145" />
    </clipPath>
    <clipPath
       clipPathUnits="userSpaceOnUse"
       id="clipPath147">
      <path
         d="M 0,500 H 500 V 0 H 0 Z"
         transform="translate(-167.91501,-323.21581)"
         id="path147" />
    </clipPath>
    <clipPath
       clipPathUnits="userSpaceOnUse"
       id="clipPath149">
      <path
         d="M 0,500 H 500 V 0 H 0 Z"
         transform="translate(-186.8437,-355.95101)"
         id="path149" />
    </clipPath>
    <clipPath
       clipPathUnits="userSpaceOnUse"
       id="clipPath151">
      <path
         d="M 0,500 H 500 V 0 H 0 Z"
         transform="translate(-136.81791,-301.44761)"
         id="path151" />
    </clipPath>
    <clipPath
       clipPathUnits="userSpaceOnUse"
       id="clipPath153">
      <path
         d="M 0,500 H 500 V 0 H 0 Z"
         transform="translate(-271.79751,-385.82651)"
         id="path153" />
    </clipPath>
    <clipPath
       clipPathUnits="userSpaceOnUse"
       id="clipPath155">
      <path
         d="M 0,500 H 500 V 0 H 0 Z"
         transform="translate(-297.46591,-363.16191)"
         id="path155" />
    </clipPath>
    <clipPath
       clipPathUnits="userSpaceOnUse"
       id="clipPath157">
      <path
         d="M 0,500 H 500 V 0 H 0 Z"
         transform="translate(-238.13391,-385.24541)"
         id="path157" />
    </clipPath>
    <clipPath
       clipPathUnits="userSpaceOnUse"
       id="clipPath159">
      <path
         d="M 0,500 H 500 V 0 H 0 Z"
         transform="translate(-192.47721,-344.05161)"
         id="path159" />
    </clipPath>
    <clipPath
       clipPathUnits="userSpaceOnUse"
       id="clipPath161">
      <path
         d="M 0,500 H 500 V 0 H 0 Z"
         transform="translate(-330.38631,-329.24951)"
         id="path161" />
    </clipPath>
    <clipPath
       clipPathUnits="userSpaceOnUse"
       id="clipPath163">
      <path
         d="M 0,500 H 500 V 0 H 0 Z"
         transform="translate(-361.48341,-306.98291)"
         id="path163" />
    </clipPath>
  </defs>
  <g
     inkscape:label="Layer 1"
     inkscape:groupmode="layer"
     id="layer1"
     transform="translate(-235.677,-157.16535)">
    <g
       id="g10"
       style="display:inline;fill:#fcb100;fill-opacity:1"
       transform="matrix(0.91254042,0,0,0.91254042,195.82,6.8842144)">
      <path
         id="path96"
         d="m 0,0 c -1.351,2.8 -3.857,4.246 -6.052,6.318 -2.741,2.589 -2.794,5.436 -4.789,8.242 -1.29,1.815 -3.151,2.565 -5.148,3.381 -3.01,1.228 -4.979,1.515 -6.388,5.214 -0.536,1.409 -0.544,2.928 -1.156,4.328 -2.516,5.755 -9.156,6.4 -14.136,8.886 -4.781,2.387 -6.256,5.739 -7.889,10.493 -0.518,1.508 -1.015,2.925 -2.676,3.482 -2.749,0.922 -7.162,-0.839 -9.761,-1.407 -0.183,-0.039 -0.368,-0.077 -0.552,-0.115 -1.514,2.821 -5.245,4.171 -8.076,5.311 -3.41,1.373 -7.038,2.48 -9.193,5.685 -1.44,2.142 -2.08,4.358 -4.118,6.119 -4.039,3.492 -9.876,4.142 -13.593,8.07 -1.989,2.103 -3.01,4.921 -4.878,7.14 -1.457,1.73 -3.174,3.238 -5.076,4.461 -0.586,0.79 -1.262,1.52 -1.986,2.179 -0.043,0.28 -0.15,0.564 -0.276,0.815 -2.436,4.841 -7.648,7.251 -11.085,11.24 -2.079,2.412 -2.927,5.695 -5.431,7.747 -1.701,1.394 -3.825,2.02 -5.91,2.573 -3.534,0.939 -7.451,1.146 -9.595,4.598 -1.483,2.387 -1.61,5.315 -3.447,7.535 -2.981,3.604 -7.757,3.285 -12.021,3.112 -3.186,-0.13 -6.714,-0.515 -9.411,1.497 -1.334,0.995 -2.197,2.968 -4.034,3.167 -2.219,0.24 -5.516,-2.228 -7.285,-3.265 -2.689,-1.577 -5.196,-3.393 -7.249,-5.761 -1.888,-2.178 -3.251,-4.731 -4.878,-7.095 -2.794,-4.057 -6.191,-6.553 -10.055,-9.468 -5.11,-3.856 -7.715,-8.735 -11.225,-13.946 -4.96,-7.365 -13.483,-10.844 -19.285,-17.459 -5.387,-6.142 -9.92,-16.463 -17.637,-19.94 -0.56,2.785 -1.673,4.557 -5.338,3.614 -6.035,-1.552 -11.884,-5.977 -16.057,-10.466 -2.54,-2.732 -4.641,-5.875 -7.379,-8.424 -3.266,-3.04 -7.426,-4.57 -11.054,-7.07 -7.145,-4.923 -9.2,-13.76 -17.035,-18.111 -7.284,-4.046 -13.669,-7.484 -18.799,-14.27 -0.051,-0.068 0.059,-0.148 0.116,-0.089 0.132,0.133 0.268,0.253 0.399,0.384 0.041,-0.042 0.1,-0.068 0.17,-0.031 4.691,2.453 9.142,4.591 14.271,6 4.016,1.104 6.967,2.299 10.226,4.814 2.408,1.858 4.384,2.401 7.127,3.237 1.147,0.349 2.228,0.725 3.139,1.539 0.872,0.781 1.245,1.779 1.771,2.789 1.578,3.028 3.096,4.589 6.536,5.931 2.207,0.861 4.859,1.141 6.148,3.455 0.61,1.095 0.309,1.896 0.558,3.018 0.974,4.388 3.063,5.603 7.04,6.963 2.847,0.973 5.704,1.66 7.504,4.287 2.393,3.493 1.404,9.525 4.881,12.202 -1.014,-1.747 -1.206,-3.888 -1.104,-6.091 0.127,-2.725 1.453,-5.858 0.551,-8.558 -1.057,-3.164 -4.649,-4.142 -7.138,-5.793 -4.444,-2.95 -3.967,-8.193 -8.015,-11.43 -4.155,-3.323 -9.405,-4.543 -12.85,-8.804 -0.059,-0.072 0.035,-0.173 0.104,-0.104 4.262,4.263 10.441,4.678 15.108,8.246 4.042,3.091 4.688,8.186 9.353,10.69 3.191,1.713 6.023,3.246 6.984,6.995 1.367,5.334 -2.144,10.209 0.044,15.47 1.75,-0.471 0.982,-1.424 1.402,-3.539 0.383,-1.93 1.14,-3.651 2.599,-5.015 1.527,-1.427 3.269,-1.961 5.293,-2.242 2.357,-0.327 3.67,0.097 5.546,-1.667 2.054,-1.929 1.564,-3.763 2.06,-6.318 0.764,-3.933 2.975,-6.034 6.794,-7.087 2.327,-0.642 4.828,-0.636 7.116,-1.425 0.483,-0.166 0.9,-0.361 1.275,-0.574 -0.004,-0.017 -0.013,-0.031 -0.016,-0.049 -0.811,-5.164 -7.127,-7.306 -8.869,-12.302 -1.302,-3.733 -0.138,-7.731 1.339,-11.23 0.001,-0.004 0.002,-0.008 0.003,-0.012 0,0 0.001,0 0.002,0 0.021,-0.048 0.039,-0.099 0.06,-0.148 0.286,-0.671 1.276,-0.174 1.131,0.477 -0.631,2.835 -0.545,5.869 1.106,8.376 1.507,2.286 4.037,3.356 6.087,5.032 1.318,1.077 2.428,2.2 2.896,3.538 0.182,-0.502 0.386,-1.008 0.637,-1.514 1.175,-2.367 2.872,-3.434 5.358,-4.206 2.73,-0.848 4.783,-2.225 6.516,-4.527 0.719,-0.954 1.142,-2.072 1.981,-2.95 4.582,-4.794 12.107,-1.018 17.013,-5.243 0.407,-0.35 0.954,0.188 0.592,0.591 -3.852,4.292 -10.061,1.815 -14.672,4.429 -3.082,1.748 -3.417,5.203 -5.984,7.387 -0.837,0.712 -1.82,0.998 -2.765,1.501 -2.887,1.539 -4.81,3.066 -6.002,6.091 -1.922,4.883 -3.115,7.398 -8.647,8.574 -2.872,0.61 -6.418,0.479 -8.64,2.604 -2.542,2.431 -1.332,6.248 -3,9.16 -0.979,1.709 -2.412,2.508 -4.296,2.912 -1.422,0.304 -2.942,0.036 -4.376,0.304 -3.82,0.713 -5.99,2.961 -6.503,6.831 -0.071,0.534 -0.148,1.046 -0.236,1.533 6.637,1.145 10.865,8.478 14.722,13.37 0.239,0.304 0.493,0.589 0.757,0.863 -0.42,-1.262 -0.646,-2.671 -0.96,-4.307 -0.939,-4.888 -3.973,-8.91 -8.558,-10.933 -0.13,-0.058 -0.035,-0.257 0.095,-0.225 3.323,0.829 6.281,2.601 8.212,5.486 1.003,1.499 1.874,3.358 2.135,5.153 0.098,0.67 0.027,1.337 0.057,2.006 0.094,2.162 0.387,3.413 1.163,4.653 1.524,1.101 3.2,2.013 4.8,3 2.895,1.785 5.654,3.853 8.898,4.984 3.52,1.229 7.227,1.039 10.804,1.897 4.827,1.158 6.3,4.846 8.47,8.235 -0.072,-0.268 -0.154,-0.534 -0.216,-0.802 -0.749,-3.271 -1.116,-6.214 -3.515,-8.778 -2.198,-2.35 -4.696,-3.169 -7.516,-4.464 -1.839,-0.844 -3.123,-1.61 -4.401,-3.177 -2.39,-2.93 -3.842,-4.443 -7.428,-5.984 -4.176,-1.795 -7.167,-4.141 -9.37,-8.194 -0.077,-0.142 0.12,-0.249 0.212,-0.124 2.555,3.491 5.513,5.401 9.671,6.457 1.916,0.487 3.847,0.648 5.636,1.572 2.054,1.062 2.57,2.494 4.205,4.016 2.08,1.936 5.216,2.248 7.698,3.501 3.332,1.682 6.301,4.405 7.711,7.922 0.935,2.331 0.897,4.743 1.245,7.195 0.349,2.465 1.183,4.374 2.261,6.295 4.076,1.648 9.461,2.313 10.018,7.33 0.547,4.931 -0.328,9.568 1.017,14.546 1.455,5.383 4.306,9.913 8.849,13.196 0.128,0.02 0.265,0.018 0.396,0.031 -0.205,-0.335 -0.406,-0.671 -0.587,-1.016 -2.176,-1.995 -3.676,-4.52 -4.197,-7.594 -0.825,-4.859 2.013,-8.591 2.727,-13.211 0.997,-6.441 -4.565,-8.357 -6.716,-13.36 -0.707,-1.643 -0.676,-2.906 -0.436,-4.61 0.41,-2.921 2.228,-2.387 0.278,-7.066 -0.796,-1.908 -2.711,-3.603 -4.11,-5.057 -0.961,-0.999 0.343,-2.904 1.547,-2.005 3.98,2.971 7.84,6.009 10.614,10.207 1.325,2.004 1.585,3.013 1.459,5.332 -0.201,3.683 -0.961,5.142 1.259,8.509 2.113,3.205 4.523,6.005 3.34,10.073 -0.658,2.263 -2.268,4 -3.457,5.98 -2.546,4.239 -2.959,8.655 -0.84,13.066 0.299,0.255 0.607,0.502 0.931,0.737 0.036,-0.005 0.068,-0.003 0.103,-0.007 0.143,-0.181 0.299,-0.349 0.45,-0.522 -0.106,-3.68 1.432,-6.623 4.614,-8.689 2.543,-1.651 5.905,-2.055 7.322,-4.846 1.194,-2.352 -0.235,-4.551 0.879,-6.982 0.605,-1.322 1.599,-2.063 2.839,-2.762 0.853,-0.481 1.953,-0.582 2.84,-1.008 0.681,-2.373 0.497,-4.578 -0.436,-7.02 -0.647,-1.694 -1.614,-3.395 -1.47,-5.264 0.245,-3.188 3.584,-4.618 4.16,-7.678 0.071,-0.374 0.605,-0.255 0.628,0.085 0.112,1.588 -0.467,2.493 -1.321,3.812 -2.105,3.25 -0.595,5.663 0.807,8.869 0.358,0.817 0.578,1.594 0.702,2.347 0.07,-0.133 0.137,-0.269 0.213,-0.391 2.279,-3.648 7.449,-2.681 10.219,-5.774 0.45,-0.502 1.378,0.024 1.151,0.67 -1.27,3.618 -5.556,3.14 -7.827,5.767 -1.832,2.12 -0.965,3.82 -2.151,6.126 -0.853,1.66 -2.032,1.982 -3.473,2.931 -3.104,2.044 -2.003,3.038 -2.641,6.068 -0.298,1.415 -0.961,2.492 -2.087,3.404 -5.151,4.174 -11.9,2.615 -14.472,9.791 0.227,-0.233 0.456,-0.463 0.699,-0.68 1.718,-1.374 3.779,-1.852 5.925,-2.054 3.505,-0.33 7.597,0.706 10.958,-0.532 4.975,-1.832 4.269,-6.874 6.67,-10.598 3.992,-6.19 12.827,-3.607 17.294,-9.143 2.282,-2.828 3.556,-5.389 6.467,-7.738 1.808,-1.459 3.581,-2.839 5.294,-4.292 1.515,-2.758 2.507,-5.66 2.801,-8.798 0.185,-1.97 0.194,-3.695 1.121,-5.492 0.755,-1.461 1.828,-2.343 3.108,-3.378 3.065,-2.481 4.947,-4.969 4.574,-9.129 -0.04,-0.445 0.569,-0.525 0.779,-0.211 2.599,3.882 1.541,8.675 -1.675,11.808 -2.405,2.342 -3.059,4.611 -3.966,7.423 0.227,-0.197 0.461,-0.395 0.708,-0.601 2.791,-2.332 4.072,-4.657 5.725,-7.793 2.885,-5.475 7.704,-6.686 12.829,-9.467 5.179,-2.81 6.042,-8.49 11.176,-11.224 2.087,-1.111 4.393,-1.735 6.623,-2.481 2.733,-0.916 4.647,-2.058 6.668,-3.653 -2.47,-0.488 -4.971,-0.982 -7.296,-1.877 -4.536,-1.747 -7.412,-5.258 -10.299,-8.83 -7.003,3.22 -13.514,5.614 -18.718,11.862 -2.234,2.683 -3.887,5.849 -6.317,8.367 -2.475,2.563 -5.686,3.795 -8.671,5.614 -3.832,2.335 -7.095,5.608 -9.595,9.319 -1.347,1.999 -2.38,4.075 -4.369,5.537 -4.602,3.383 -10.595,1.755 -14.988,-1.172 -6.642,-4.424 -10.678,-11.347 -18.259,-14.546 -2.757,-1.164 -5.305,-2.167 -7.64,-4.1 -3.183,-2.634 -5.507,-5.971 -9.038,-8.246 -2.684,-1.73 -5.738,-2.815 -8.369,-4.638 -0.739,-0.512 -1.419,-1.078 -2.066,-1.676 -1.457,-0.589 -2.952,-1.075 -4.524,-1.404 -2.656,-0.557 -5.494,-0.578 -8.052,-1.565 -1.843,-0.711 -3.195,-1.86 -4.677,-3.116 -2.976,-2.525 -5.859,-4.078 -9.603,-5.193 -0.316,-0.094 -0.261,-0.58 0.078,-0.58 6.63,-10e-4 10.171,5.869 16.386,6.948 2.525,0.438 4.826,0.77 6.986,1.36 -0.608,-0.659 -1.223,-1.312 -1.872,-1.938 -2.485,-2.397 -5.739,-3.724 -8.715,-5.377 -1.468,-0.816 -2.921,-1.698 -4.162,-2.84 -0.629,-0.578 -1.165,-1.258 -1.44,-1.824 -1.119,-0.963 -2.124,-1.981 -2.961,-3.042 -0.105,-0.133 -0.014,-0.409 0.192,-0.328 3.134,1.232 6.03,3.122 9.023,4.708 0.505,0.257 1.012,0.51 1.518,0.765 3.254,1.564 6.691,2.677 9.966,4.182 1.419,0.498 2.854,0.949 4.296,1.376 -0.342,-0.224 -0.678,-0.455 -1.031,-0.665 -4.165,-2.481 -8.605,-4.363 -12.436,-7.379 -0.044,-0.035 0.013,-0.105 0.06,-0.078 5.035,2.923 10.97,3.381 16.012,6.333 1.831,1.071 3.564,2.31 5.154,3.702 2.982,0.585 6.006,1.132 8.809,2.347 0.356,0.154 0.682,0.324 1.006,0.495 -0.609,-1.745 -1.077,-3.171 -2.984,-4.572 -0.924,-0.68 -2.049,-1.24 -3.087,-1.711 -4.675,-2.121 -9.282,-0.201 -12.908,-4.234 -2.214,-2.463 -3.756,-3.769 -7.161,-4.51 -2.197,-0.477 -4.048,-0.769 -6.006,-1.897 -0.143,-0.082 -0.049,-0.32 0.114,-0.269 4.154,1.287 8.926,-0.72 12.784,1.625 2.809,1.707 3.2,3.852 7.027,4.254 1.743,0.183 3.077,0.183 4.51,0.435 -1.442,-1.748 -2.742,-3.69 -4.517,-5.062 -3.291,-2.542 -7.279,-3.477 -10.405,-6.409 -0.082,-0.078 0.023,-0.209 0.12,-0.155 4.394,2.472 9.603,2.479 13.677,5.554 2.336,1.764 4.713,4.575 5.429,7.536 3.045,1.378 5.775,3.206 7.133,6.44 1.102,2.624 1.139,5.441 2.51,8.007 0.19,0.357 0.398,0.696 0.615,1.026 0.052,0.054 0.1,0.107 0.153,0.162 1.662,1.733 3.778,2.578 5.996,3.197 -0.674,-1.142 -1.037,-2.373 -1.345,-3.747 -0.812,-3.63 -1.881,-5.424 -4.845,-7.779 -0.061,-0.049 0.006,-0.14 0.072,-0.124 2.181,0.548 4.26,1.337 5.772,3.095 1.674,1.948 1.987,4.632 3.503,6.67 1.309,1.759 3.758,3.128 5.606,4.803 0.854,0.552 1.639,1.229 2.303,2.124 1.98,2.664 1.786,5.912 2.174,9.037 0.54,4.339 2.142,8.155 4.948,11.195 0.249,-1.128 0.797,-2.263 1.408,-3.27 0.296,-0.487 0.604,-0.948 0.915,-1.396 -2.389,-5.762 0.518,-14.126 -5.478,-18.017 -2.121,-1.376 -4.456,-2.205 -5.957,-4.361 -1.904,-2.733 -1.902,-5.765 -4.841,-7.944 -5.224,-3.873 -11.607,-5.538 -16.434,-10.192 -4.899,-4.725 -4.494,-9.844 -2.569,-16.001 0.39,-1.248 2.255,-0.736 1.959,0.54 -2.487,10.716 12.02,10.998 18.303,14.266 1.94,1.009 3.846,2.343 5.12,4.152 2.009,2.853 1.741,6.273 4.859,8.406 4.013,2.747 7.641,3.324 8.25,8.913 0,5.816 -1.371,11.591 -2.321,17.373 -0.11,0.675 -0.195,1.351 -0.292,2.026 2.397,-3.266 4.855,-5.837 4.728,-10.654 -0.005,-0.177 0.233,-0.186 0.29,-0.039 1.182,3.054 1.533,6.487 0.118,9.545 -0.799,1.727 -2.048,3.162 -3.078,4.742 -0.825,1.267 -1.2,2.574 -1.634,3.889 0.971,-0.225 1.935,-0.627 2.876,-1.248 3.207,-2.117 4.419,-6.349 6.739,-9.376 3.896,-5.084 9.322,-7.012 14.558,-10.324 5.458,-3.451 8.345,-9.795 13.5,-13.76 4.093,-3.149 9.426,-6.091 14.75,-6.474 -1.17,-1.429 -2.373,-2.836 -3.72,-4.109 -2.589,-2.447 -5.537,-4.27 -8.465,-6.127 -4.393,-2.088 -9.314,-2.193 -13.494,-4.76 -3.776,-2.318 -6.148,-6.362 -9.607,-9.116 -0.241,-0.192 0.071,-0.587 0.328,-0.425 4.235,2.686 7.387,7.056 12.231,8.716 1.624,0.556 3.136,0.985 4.579,1.431 -1.034,-0.846 -2.028,-1.762 -2.958,-2.786 -5.922,-6.522 -10.749,-12.54 -19.418,-15.568 -0.121,-0.042 -0.072,-0.211 0.052,-0.189 7.679,1.35 12.7,6.082 17.702,10.979 1.392,0.81 2.853,1.479 4.39,1.902 3.14,0.863 6.426,0.221 9.579,0.937 6.194,1.407 7.911,8.28 13.602,9.963 4.687,1.385 9.495,-0.843 12.763,3.87 1.681,2.423 2.24,5.497 3.697,8.05 1.577,2.762 3.562,4.815 6.081,6.229 -0.804,-1.773 -0.667,-3.879 -0.313,-5.994 -2.814,-1.955 -4.263,-5.706 -5.479,-8.778 -1.299,-3.282 -2.632,-6.312 -5.742,-8.256 -2.252,-1.408 -4.854,-2.14 -7.036,-3.677 -3.613,-2.545 -4.893,-6.738 -6.546,-10.65 -1.207,-2.86 -3.361,-5.958 -1.15,-8.676 0.524,-0.644 1.815,-0.136 1.713,0.71 -0.889,7.39 8.218,9.737 14.339,13.356 -0.389,-0.83 -0.86,-1.647 -1.48,-2.473 -1.171,-1.563 -2.546,-3.02 -3.349,-4.825 -1.049,-2.359 -0.924,-4.423 0.777,-6.366 0.143,-0.163 0.444,0.009 0.37,0.216 -1.612,4.479 2.12,7.619 4.317,10.977 0.857,1.311 1.51,2.718 1.848,4.191 0.642,0.536 1.206,1.108 1.654,1.733 4.465,6.228 3.408,14.769 5.58,21.878 0.061,0.199 0.125,0.397 0.191,0.594 0.332,-1.968 0.835,-3.937 0.915,-5.637 0.093,-1.958 0.167,-3.449 0.948,-5.319 0.449,-1.073 1.579,-2.165 1.866,-3.246 0.961,-3.634 -0.666,-7.105 -3.274,-9.395 -0.411,-0.361 0.18,-0.919 0.592,-0.591 3.525,2.806 5.425,6.124 4.201,10.626 -0.579,2.13 -1.683,3.562 -1.67,5.966 0.01,1.845 0.86,3.589 0.662,5.471 -0.101,0.955 -0.336,1.822 -0.596,2.662 0.303,-0.622 0.624,-1.229 0.952,-1.819 1.111,-1.999 2.898,-3.611 3.978,-5.57 1.606,-2.913 0.208,-5.089 0.65,-8.018 0.134,-0.892 0.537,-1.777 1.131,-2.468 0.555,-0.645 1.365,-0.835 1.885,-1.402 1.271,-1.387 1.935,-3.529 2.013,-5.446 0.162,-3.983 -0.026,-6.767 1.982,-10.511 0.136,-0.253 0.505,-0.03 0.383,0.224 -1.887,3.911 -0.992,6.664 0.273,10.434 0.431,1.283 0.975,2.61 0.807,3.99 -0.173,1.427 -0.748,2.15 -1.586,3.227 -1.402,1.802 -2.114,2.695 -2.499,5.136 -0.498,3.157 -1.574,4.519 -3.639,7.032 -1.429,1.738 -2.38,3.556 -3.167,5.409 0.124,-0.178 0.243,-0.358 0.376,-0.532 1.291,-1.695 2.935,-3.145 4.757,-4.251 3.035,-1.843 6.654,-2.364 9.787,-3.975 4.97,-2.554 4.565,-5.89 6.498,-10.3 0.854,-1.948 2.146,-3.127 3.991,-4.151 3.582,-1.989 5.903,-2.153 7.854,-6.164 C -9.564,5.593 -5.279,3.002 -1.12,-0.864 -0.51,-1.432 0.349,-0.723 0,0"
         style="fill:#fcb100;fill-opacity:1;fill-rule:nonzero;stroke:none"
         transform="matrix(1.3333333,0,0,-1.3333333,546.59013,338.13413)"
         clip-path="url(#clipPath97)" />
      <path
         id="path98"
         d="m 0,0 c -2.843,0.5 -5.152,0.026 -7.269,-2.055 -2.536,-2.494 -6.917,-3.352 -8.585,-6.62 -1.266,-2.481 -0.689,-4.372 -3.688,-6.077 -1.227,-0.697 -2.261,-0.764 -3.356,-1.76 -1.69,-1.539 -2.329,-4.311 -3.262,-6.748 -0.8,-1.422 -1.632,-2.871 -2.953,-4.05 -0.045,-0.04 -0.071,-0.082 -0.098,-0.125 -0.615,-0.329 -1.328,-0.544 -2.201,-0.575 -0.158,-0.005 -0.211,-0.262 -0.039,-0.289 0.984,-0.159 1.892,-0.133 2.737,0.099 0.086,-0.004 0.172,0.003 0.257,0.041 0.094,0.041 0.173,0.093 0.264,0.136 0.337,0.133 0.666,0.295 0.981,0.507 2.898,1.709 4.655,4.309 7.936,5.722 1.264,0.545 1.87,0.445 2.901,1.487 1.269,1.284 1.177,3.034 3.151,3.776 1.783,0.67 3.214,-0.441 4.254,1.783 1.386,2.959 -1.063,3.552 1.667,7.654 1.675,2.517 4.983,4.265 7.45,5.969 C 0.538,-0.856 0.566,-0.1 0,0"
         style="fill:#fcb100;fill-opacity:1;fill-rule:nonzero;stroke:none"
         transform="matrix(1.3333333,0,0,-1.3333333,234.08493,292.35827)"
         clip-path="url(#clipPath99)" />
      <path
         id="path100"
         d="m 0,0 c -2.556,-4.523 -9.985,-1.672 -10.363,-8.21 -0.162,-2.8 1.471,-3.257 -1.951,-6.031 -0.99,-0.802 -2.448,-1.219 -3.609,-1.754 -2.483,-1.147 -4.828,-2.26 -6.937,-4.027 -0.137,-0.115 0.037,-0.299 0.178,-0.232 4.864,2.304 13.37,1.508 16.492,6.768 0.212,-0.331 0.434,-0.656 0.609,-1.016 0.845,-1.729 0.527,-3.489 -0.07,-5.231 -0.156,-0.455 0.473,-0.632 0.72,-0.303 1.195,1.596 2.337,3.381 1.525,5.416 -0.379,0.951 -1.161,1.638 -1.629,2.533 -0.16,0.305 -0.278,0.623 -0.378,0.945 0.023,0.487 -0.003,0.987 0.041,1.629 0.21,3.023 1.332,3.554 3.558,5.216 1.544,1.152 2.608,2.078 2.777,4.036 C 1.007,0.262 0.24,0.425 0,0"
         style="fill:#fcb100;fill-opacity:1;fill-rule:nonzero;stroke:none"
         transform="matrix(1.3333333,0,0,-1.3333333,241.53933,300.99227)"
         clip-path="url(#clipPath101)" />
      <path
         id="path102"
         d="m 0,0 c -2.381,-4.851 -9.466,-3.583 -13.323,-6.917 -2.404,-2.078 -4.598,-2.65 -7.647,-3.483 -1.94,-0.53 -3.29,-1.387 -4.613,-2.896 -0.232,-0.263 0.117,-0.608 0.382,-0.383 5.807,4.937 6.676,-0.002 11.184,1.713 2.274,0.865 2.825,3.324 4.513,4.74 3.192,2.678 9.51,1.844 9.779,7.152 C 0.282,0.068 0.064,0.131 0,0"
         style="fill:#fcb100;fill-opacity:1;fill-rule:nonzero;stroke:none"
         transform="matrix(1.3333333,0,0,-1.3333333,193.92907,317.91213)"
         clip-path="url(#clipPath103)" />
      <path
         id="path104"
         d="m 0,0 c -2.605,-0.498 -5.855,-1.006 -8.226,-2.235 -0.993,-0.515 -1.741,-1.24 -2.567,-1.966 -1.62,-1.425 -3.227,-1.894 -5.286,-2.43 -0.053,-0.014 -0.043,-0.098 0.013,-0.097 3.023,0.074 4.079,-0.926 6.597,1.203 1.295,1.096 2.192,2.313 3.778,3.057 1.841,0.864 3.927,1.254 5.822,1.994 C 0.424,-0.36 0.315,0.06 0,0"
         style="fill:#fcb100;fill-opacity:1;fill-rule:nonzero;stroke:none"
         transform="matrix(1.3333333,0,0,-1.3333333,166.85013,325.00467)"
         clip-path="url(#clipPath105)" />
      <path
         id="path106"
         d="m 0,0 c -0.024,0.075 -0.153,0.068 -0.145,-0.02 0.232,-2.646 0.865,-5.557 0.596,-8.2 -0.435,-4.265 -2.717,-5.587 -5.728,-7.957 -1.138,-0.895 -2.198,-1.701 -2.865,-3.017 -1.236,-2.439 -0.38,-4.919 -2.385,-7.273 -2.847,-3.343 -8.221,-3.145 -11.376,-6.297 -2.959,-2.955 -4.033,-7.269 -6.62,-10.516 -0.438,-0.55 0.096,-1.363 0.775,-1.004 4.848,2.563 5.13,8.959 10.831,10.416 5.174,1.322 9.646,1.691 11.882,7.302 1.149,2.884 0.723,5.038 2.954,7.411 1.453,1.545 2.978,2.335 4.001,4.272 C 4.437,-10.118 1.51,-4.624 0,0"
         style="fill:#fcb100;fill-opacity:1;fill-rule:nonzero;stroke:none"
         transform="matrix(1.3333333,0,0,-1.3333333,380.96413,259.79653)"
         clip-path="url(#clipPath107)" />
      <path
         id="path108"
         d="m 0,0 c -0.867,1.561 -1.68,1.422 -2.208,3.42 -0.607,2.298 0.573,2.874 1.058,5.009 0.095,0.42 -0.435,0.623 -0.674,0.284 C -2.958,7.107 -4.723,5.324 -5,3.284 -5.161,2.108 -4.592,1.53 -4.561,0.44 c 0.119,-4.286 -1.041,-3.706 -3.291,-6.112 -1.43,-1.529 -2.592,-3.303 -2.016,-5.502 0.198,-0.756 0.918,-1.32 1.109,-2.006 0.532,-1.922 -1.581,-2.61 -3.292,-3.673 -0.16,-0.1 -0.059,-0.377 0.133,-0.315 1.865,0.608 5.637,1.048 6.499,3.261 0.264,0.677 -0.095,1.143 0.024,1.804 0.085,0.469 -0.543,1.205 -0.441,1.732 0.25,1.295 3.058,2.799 3.938,3.687 C -0.187,-4.959 1.375,-2.474 0,0"
         style="fill:#fcb100;fill-opacity:1;fill-rule:nonzero;stroke:none"
         transform="matrix(1.3333333,0,0,-1.3333333,395.9196,297.6012)"
         clip-path="url(#clipPath109)" />
      <path
         id="path110"
         d="m 0,0 c -0.656,2.17 -2.289,4.014 -3.909,5.566 -1.735,1.662 -4.613,2.494 -5.792,4.422 -0.906,1.482 -0.654,3.326 -2.187,4.439 -1.875,1.362 -4.311,0.158 -6.296,1.382 -0.123,0.076 -0.239,-0.092 -0.149,-0.193 1.119,-1.263 2.832,-1.411 3.998,-2.473 1.579,-1.436 0.626,-4.073 1.992,-5.73 1.232,-1.495 3.283,-2.081 4.925,-2.961 2.529,-1.356 4.073,-3.335 6.143,-5.194 C -0.733,-1.228 0.231,-0.765 0,0"
         style="fill:#fcb100;fill-opacity:1;fill-rule:nonzero;stroke:none"
         transform="matrix(1.3333333,0,0,-1.3333333,423.4532,294.20493)"
         clip-path="url(#clipPath111)" />
      <path
         id="path112"
         d="m 0,0 c -0.985,2.805 -0.474,6.143 -1.53,8.824 -0.466,1.182 -1.092,1.528 -1.845,2.421 -1.672,1.98 -3.414,3.36 -4.524,5.844 -1.123,2.512 -1.684,4.375 -3.813,6.339 -0.098,0.09 -0.277,-0.029 -0.193,-0.149 3.187,-4.559 -0.636,-9.719 3.33,-13.922 2.125,-2.252 2.664,-4.386 3.773,-7.002 1.646,-3.879 6.437,-2.049 4.703,-9.559 -0.099,-0.432 0.538,-0.61 0.665,-0.183 C 1.38,-4.642 0.918,-2.614 0,0"
         style="fill:#fcb100;fill-opacity:1;fill-rule:nonzero;stroke:none"
         transform="matrix(1.3333333,0,0,-1.3333333,403.12213,292.74187)"
         clip-path="url(#clipPath113)" />
      <path
         id="path114"
         d="m 0,0 c -2.094,-4.008 -6.934,-4.941 -9.473,-8.561 -1.383,-1.973 -1.404,-4.132 -2.037,-6.348 -1.157,-4.045 -4.569,-5.41 -8.06,-7.053 -1.683,-0.793 -3.372,-1.379 -4.588,-2.886 -0.126,-0.156 -0.242,-0.315 -0.353,-0.476 -2.999,-1.069 -5.784,-2.123 -8.406,-4.403 -4.356,-3.787 -11.266,-3.165 -16.354,-6.091 -0.166,-0.096 -0.02,-0.339 0.149,-0.255 3.916,1.949 7.176,1.879 11.385,2 1.51,0.043 2.82,0.264 4.085,1.153 0.942,0.661 1.54,1.784 2.326,2.6 1.607,1.666 3.246,2.406 5.356,3.149 0.177,0.063 0.345,0.12 0.516,0.178 -0.784,-1.63 -1.374,-3.271 -3.203,-4.537 -3.463,-2.397 -7.384,-2.174 -9.231,-6.462 -0.031,-0.072 0.052,-0.154 0.116,-0.09 3.341,3.363 8.285,2.925 12.214,4.995 -0.212,-0.423 -0.411,-0.85 -0.581,-1.286 -0.848,-2.179 -0.682,-4.688 -2.088,-6.605 -1.534,-2.092 -4.097,-3.222 -6.591,-3.613 -0.116,-0.018 -0.077,-0.185 0.026,-0.193 3.408,-0.275 7.313,0.955 8.939,4.239 1.079,2.18 0.83,4.715 1.924,6.967 1.109,2.282 2.834,4.157 4.335,6.175 0.046,0.063 0.069,0.126 0.087,0.188 0.411,0.351 0.854,0.685 1.386,0.976 2.165,1.186 4.424,2.018 6.475,3.45 3.829,2.674 4.705,5.875 5.189,10.335 0.572,5.272 5.16,7.597 6.997,12.227 C 0.663,0.084 0.153,0.294 0,0"
         style="fill:#fcb100;fill-opacity:1;fill-rule:nonzero;stroke:none"
         transform="matrix(1.3333333,0,0,-1.3333333,303.37947,226.0932)"
         clip-path="url(#clipPath115)" />
      <path
         id="path116"
         d="m 0,0 c 0.048,0.187 -0.215,0.304 -0.315,0.133 -1.029,-1.78 -1.429,-3.505 -1.78,-5.522 -0.716,-4.107 -2.904,-6.054 -6.239,-8.203 -1.554,-1.001 -2.705,-2.18 -3.828,-3.638 -2.292,-2.974 -4.161,-4.97 -7.364,-7.051 -0.427,-0.277 -0.291,-1.033 0.273,-1.008 6.719,0.288 9.908,5.746 14.661,9.618 1.895,1.544 3.44,2.896 4.116,5.37 C 0.445,-6.928 -0.879,-3.422 0,0"
         style="fill:#fcb100;fill-opacity:1;fill-rule:nonzero;stroke:none"
         transform="matrix(1.3333333,0,0,-1.3333333,301.02267,244.2416)"
         clip-path="url(#clipPath117)" />
      <path
         id="path118"
         d="m 0,0 c -0.006,0.378 -0.59,0.481 -0.676,0.092 -0.591,-2.646 0.607,-4.019 1.055,-6.587 0.707,-4.049 -2.371,-6.22 -3.51,-9.648 -0.716,-2.154 -0.572,-3.932 0.07,-6.06 0.618,-2.054 1.014,-1.47 1.212,-4.275 0.238,-3.369 -1.084,-4.581 -3.365,-7.069 -0.148,-0.161 0.04,-0.426 0.239,-0.309 2.56,1.509 5.523,3.429 7.042,6.072 1.579,2.746 0.322,3.646 -0.191,6.336 -0.871,4.569 2.518,6.359 2.895,10.496 C 5.17,-6.572 0.068,-4.473 0,0"
         style="fill:#fcb100;fill-opacity:1;fill-rule:nonzero;stroke:none"
         transform="matrix(1.3333333,0,0,-1.3333333,337.1364,193.23373)"
         clip-path="url(#clipPath119)" />
      <path
         id="path120"
         d="m 0,0 c -2.212,2.676 -5.856,3.534 -6.476,7.13 -0.408,2.36 0.158,4.038 -2.074,5.656 -1.241,0.899 -2.804,1.023 -4.21,1.477 -3.401,1.098 -5.969,2.885 -8.166,5.742 -0.116,0.15 -0.334,0.027 -0.255,-0.149 1.132,-2.543 2.552,-4.674 4.812,-6.342 1.44,-1.063 3.922,-1.48 5.138,-2.689 0.994,-0.99 1.208,-1.846 1.19,-2.701 -0.011,0.008 -0.021,0.018 -0.032,0.026 -0.074,0.053 -0.138,-0.056 -0.09,-0.116 0.045,-0.054 0.073,-0.106 0.113,-0.161 -0.063,-0.926 -0.336,-1.866 -0.132,-2.989 0.092,-0.504 0.236,-0.935 0.413,-1.326 -0.613,-1.315 -1.516,-2.614 -1.546,-4.133 -0.043,-2.119 1.542,-3.853 3.055,-5.14 0.238,-0.202 0.666,0.062 0.464,0.358 -1.408,2.054 -2.42,3.992 -1.276,6.436 0.148,0.317 0.291,0.627 0.426,0.938 0.594,-0.551 1.322,-1.008 2.172,-1.484 1.789,-1 3.787,-1.871 5.286,-3.316 1.769,-1.706 2.489,-4.045 3.64,-6.14 C 2.811,-9.578 3.9,-9.294 3.873,-8.538 3.756,-5.33 2.025,-2.45 0,0"
         style="fill:#fcb100;fill-opacity:1;fill-rule:nonzero;stroke:none"
         transform="matrix(1.3333333,0,0,-1.3333333,394.36,226.14973)"
         clip-path="url(#clipPath121)" />
      <path
         id="path122"
         d="m 0,0 c -2.16,0.176 -3.826,0.479 -5.332,2.159 -1.297,1.446 -0.947,2.022 -0.625,3.82 0.255,1.421 0.491,2.63 0.138,4.07 -0.904,3.683 -5.433,4.713 -6.116,8.495 -0.067,0.37 -0.611,0.259 -0.628,-0.085 -0.119,-2.408 1.129,-4.16 2.102,-6.275 1.172,-2.543 0.913,-5.033 1.537,-7.652 1.025,-4.299 5.181,-4.551 8.924,-4.581 0.032,0 0.031,0.046 0,0.049"
         style="fill:#fcb100;fill-opacity:1;fill-rule:nonzero;stroke:none"
         transform="matrix(1.3333333,0,0,-1.3333333,437.5956,276.5948)"
         clip-path="url(#clipPath123)" />
      <path
         id="path124"
         d="m 0,0 c -1.719,0.929 -3.294,1.357 -4.558,2.968 -1.017,1.299 -1.745,2.889 -2.429,4.381 -0.02,0.045 -0.094,0.023 -0.091,-0.024 0.175,-2.576 0.514,-5.372 2.513,-7.25 0.971,-0.913 2.217,-1.202 3.428,-1.667 2.276,-0.871 3.85,-1.932 4.882,-4.249 0.082,-0.184 0.358,-0.05 0.315,0.133 C 3.509,-3.367 2.154,-1.164 0,0"
         style="fill:#fcb100;fill-opacity:1;fill-rule:nonzero;stroke:none"
         transform="matrix(1.3333333,0,0,-1.3333333,440.72853,266.4864)"
         clip-path="url(#clipPath125)" />
      <path
         id="path126"
         d="m 0,0 c -6.387,-1.161 -9.691,-4.91 -12.754,-10.165 -3.715,-6.373 -11.91,-5.555 -17.395,-9.57 -0.276,-0.202 -0.039,-0.639 0.273,-0.468 5.517,3.026 12.509,0.537 17.773,4.288 1.938,1.381 3.169,3.277 4.137,5.427 0.996,2.211 1.498,4.207 3.35,5.899 1.562,1.427 3.518,2.322 5.166,3.643 C 1.036,-0.556 0.491,0.089 0,0"
         style="fill:#fcb100;fill-opacity:1;fill-rule:nonzero;stroke:none"
         transform="matrix(1.3333333,0,0,-1.3333333,452.586,304.78387)"
         clip-path="url(#clipPath127)" />
      <path
         id="path128"
         d="m 0,0 c -0.769,2.178 -2.166,2.215 -3.903,3.445 -2.776,1.967 -2.098,5.785 -4.618,8.145 -1.029,0.963 -2.37,1.384 -3.46,2.217 -3.611,2.762 -2.261,2.822 -3.583,5.708 -1.129,2.463 -3.259,3.666 -5.549,4.965 -0.121,0.068 -0.249,-0.093 -0.149,-0.194 3.064,-3.08 2.819,-5.943 4.148,-9.501 0.838,-2.243 2.787,-3.42 4.596,-4.785 C -9.861,7.995 -9.78,4.921 -7.4,2.794 -5.649,1.228 -3.07,0.355 -1.048,-0.806 -0.539,-1.098 0.214,-0.606 0,0"
         style="fill:#fcb100;fill-opacity:1;fill-rule:nonzero;stroke:none"
         transform="matrix(1.3333333,0,0,-1.3333333,532.02067,336.69987)"
         clip-path="url(#clipPath129)" />
      <path
         id="path130"
         d="M 0,0 C -1.949,3.104 -5.326,2.384 -4.548,7.431 -4.5,7.74 -4.915,7.865 -5.022,7.561 -6.033,4.716 -6.283,2.927 -4.088,0.648 c 0.501,-0.519 1.122,-0.954 1.527,-1.562 0.65,-0.974 0.465,-1.784 0.444,-2.871 -0.023,-1.173 0.08,-1.797 1.147,-2.328 0.4,-0.199 0.83,-0.027 0.976,0.397 C 0.623,-3.922 1.068,-1.702 0,0"
         style="fill:#fcb100;fill-opacity:1;fill-rule:nonzero;stroke:none"
         transform="matrix(1.3333333,0,0,-1.3333333,492.6896,329.57587)"
         clip-path="url(#clipPath131)" />
      <path
         id="path132"
         d="m 0,0 c -1.494,-3.783 -4.471,-4.322 -6.919,-6.951 -1.563,-1.68 -1.262,-3.203 -1.959,-5.227 -1.668,-4.837 -8.161,-5.011 -9.082,-10.582 -0.026,-0.157 0.179,-0.267 0.27,-0.114 2.835,4.791 10.388,3.829 12.424,9.443 0.337,0.928 0.234,1.905 0.517,2.827 0.551,1.795 1.888,2.792 2.827,4.313 1.123,1.817 2.203,3.993 2.728,6.069 C 0.942,0.311 0.194,0.49 0,0"
         style="fill:#fcb100;fill-opacity:1;fill-rule:nonzero;stroke:none"
         transform="matrix(1.3333333,0,0,-1.3333333,379.4808,297.74)"
         clip-path="url(#clipPath133)" />
      <path
         id="path134"
         d="M 0,0 C 0.18,0.646 0.182,1.235 0.015,1.887 -0.415,3.563 -0.74,4.64 -0.516,6.408 -0.475,6.728 -0.971,6.835 -1.112,6.569 -1.755,5.35 -1.673,4.408 -1.865,3.079 -2.157,1.07 -3.524,-0.183 -3.999,-2.073 c -0.626,-2.495 0.44,-4.699 2.606,-5.949 0.31,-0.179 0.71,0.187 0.505,0.505 -0.915,1.414 -1.229,3.187 -0.555,4.783 C -1.04,-1.778 -0.284,-1.017 0,0"
         style="fill:#fcb100;fill-opacity:1;fill-rule:nonzero;stroke:none"
         transform="matrix(1.3333333,0,0,-1.3333333,335.75413,320.64867)"
         clip-path="url(#clipPath135)" />
      <path
         id="path136"
         d="m 0,0 c -1.742,1.473 -2.071,3.394 -1.009,5.53 0.411,0.826 0.837,1.311 0.684,2.309 -0.104,0.678 -0.414,1.163 -0.891,1.67 -1.382,1.466 -2.51,1.95 -2.184,4.368 0.035,0.257 -0.296,0.451 -0.449,0.19 -0.611,-1.042 -0.925,-2.083 -0.819,-3.293 0.056,-0.636 0.229,-1.132 0.437,-1.718 0.469,-1.316 0.712,-1.454 0.26,-2.813 -1.15,-3.458 0.445,-5.429 3.494,-6.861 C -0.103,-0.794 0.367,-0.31 0,0"
         style="fill:#fcb100;fill-opacity:1;fill-rule:nonzero;stroke:none"
         transform="matrix(1.3333333,0,0,-1.3333333,317.3348,332.45147)"
         clip-path="url(#clipPath137)" />
      <path
         id="path138"
         d="M 0,0 C 0.243,0.934 0.795,1.81 1.135,2.716 1.718,4.269 1.882,5.584 0.841,6.966 0.651,7.218 0.191,7.166 0.199,6.792 0.268,3.83 -3.057,2.233 -2.744,-0.887 c 0.196,-1.951 1.606,-3.368 3.563,-3.358 0.5,0.003 0.794,0.651 0.417,1.008 C 0.281,-2.332 -0.342,-1.311 0,0"
         style="fill:#fcb100;fill-opacity:1;fill-rule:nonzero;stroke:none"
         transform="matrix(1.3333333,0,0,-1.3333333,262.684,330.69507)"
         clip-path="url(#clipPath139)" />
      <path
         id="path140"
         d="m 0,0 c -1.669,-1.798 -2.541,-3.517 -3.13,-5.878 -0.295,-1.183 -0.024,-2.455 -0.664,-3.583 -0.783,-1.379 -3.219,-2.171 -4.589,-2.898 -4.212,-2.236 -7.046,-5.505 -5.539,-10.472 0.042,-0.137 0.232,-0.105 0.242,0.032 0.256,3.681 4.172,5.916 7.113,7.333 1.374,0.661 2.946,1.255 3.922,2.511 0.712,0.917 0.995,1.728 0.988,2.916 -0.005,0.925 -0.527,1.805 -0.597,2.721 -0.2,2.629 0.941,5.045 2.532,7.04 C 0.432,-0.085 0.176,0.19 0,0"
         style="fill:#fcb100;fill-opacity:1;fill-rule:nonzero;stroke:none"
         transform="matrix(1.3333333,0,0,-1.3333333,324.28387,237.4288)"
         clip-path="url(#clipPath141)" />
      <path
         id="path142"
         d="M 0,0 1.912,-3.496 5.408,-5.408 1.912,-7.32 0,-10.816 l -1.912,3.496 -3.496,1.912 3.496,1.912 z"
         style="display:none;fill:#fcb100;fill-opacity:1;fill-rule:nonzero;stroke:none"
         transform="matrix(1.3333333,0,0,-1.3333333,417.98093,194.46907)"
         clip-path="url(#clipPath143)" />
      <path
         id="path144"
         d="M 0,0 1.315,-2.404 3.718,-3.718 1.315,-5.033 0,-7.436 l -1.315,2.403 -2.403,1.315 2.403,1.314 z"
         style="display:none;fill:#fcb100;fill-opacity:1;fill-rule:nonzero;stroke:none"
         transform="matrix(1.3333333,0,0,-1.3333333,274.65373,172.08493)"
         clip-path="url(#clipPath145)" />
      <path
         id="path146"
         d="M 0,0 0.748,-1.368 2.116,-2.116 0.748,-2.865 0,-4.233 l -0.748,1.368 -1.368,0.749 1.368,0.748 z"
         style="display:none;fill:#fcb100;fill-opacity:1;fill-rule:nonzero;stroke:none"
         transform="matrix(1.3333333,0,0,-1.3333333,223.88667,235.71227)"
         clip-path="url(#clipPath147)" />
      <path
         id="path148"
         d="M 0,0 0.637,-1.165 1.803,-1.803 0.637,-2.44 0,-3.605 l -0.637,1.165 -1.166,0.637 1.166,0.638 z"
         style="display:none;fill:#fcb100;fill-opacity:1;fill-rule:nonzero;stroke:none"
         transform="matrix(1.3333333,0,0,-1.3333333,249.12493,192.06533)"
         clip-path="url(#clipPath149)" />
      <path
         id="path150"
         d="M 0,0 1.285,-2.35 3.635,-3.635 1.285,-4.92 0,-7.27 l -1.285,2.35 -2.35,1.285 2.35,1.285 z"
         style="display:none;fill:#fcb100;fill-opacity:1;fill-rule:nonzero;stroke:none"
         transform="matrix(1.3333333,0,0,-1.3333333,182.42387,264.73653)"
         clip-path="url(#clipPath151)" />
      <path
         id="path152"
         d="M 0,0 1.48,-2.706 4.187,-4.187 1.48,-5.667 0,-8.373 l -1.48,2.706 -2.707,1.48 2.707,1.481 z"
         style="display:none;fill:#fcb100;fill-opacity:1;fill-rule:nonzero;stroke:none"
         transform="matrix(1.3333333,0,0,-1.3333333,362.39667,152.23133)"
         clip-path="url(#clipPath153)" />
      <path
         id="path154"
         d="M 0,0 0.717,-1.311 2.028,-2.028 0.717,-2.745 0,-4.056 l -0.717,1.311 -1.311,0.717 1.311,0.717 z"
         style="display:none;fill:#fcb100;fill-opacity:1;fill-rule:nonzero;stroke:none"
         transform="matrix(1.3333333,0,0,-1.3333333,396.6212,182.4508)"
         clip-path="url(#clipPath155)" />
      <path
         id="path156"
         d="M 0,0 0.637,-1.165 1.803,-1.803 0.637,-2.44 0,-3.605 l -0.637,1.165 -1.166,0.637 1.166,0.638 z"
         style="display:none;fill:#fcb100;fill-opacity:1;fill-rule:nonzero;stroke:none"
         transform="matrix(1.3333333,0,0,-1.3333333,317.51187,153.00613)"
         clip-path="url(#clipPath157)" />
      <path
         id="path158"
         d="M 0,0 1.018,-1.862 2.88,-2.88 1.018,-3.898 0,-5.759 l -1.018,1.861 -1.862,1.018 1.862,1.018 z"
         style="display:none;fill:#fcb100;fill-opacity:1;fill-rule:nonzero;stroke:none"
         transform="matrix(1.3333333,0,0,-1.3333333,256.63627,207.9312)"
         clip-path="url(#clipPath159)" />
      <path
         id="path160"
         d="M 0,0 1.076,-1.967 3.044,-3.044 1.076,-4.12 0,-6.087 l -1.076,1.967 -1.968,1.076 1.968,1.077 z"
         style="display:none;fill:#fcb100;fill-opacity:1;fill-rule:nonzero;stroke:none"
         transform="matrix(1.3333333,0,0,-1.3333333,440.51507,227.66733)"
         clip-path="url(#clipPath161)" />
      <path
         id="path162"
         d="M 0,0 1.089,-1.991 3.079,-3.079 1.089,-4.168 0,-6.159 l -1.089,1.991 -1.99,1.089 1.99,1.088 z"
         style="display:none;fill:#fcb100;fill-opacity:1;fill-rule:nonzero;stroke:none"
         transform="matrix(1.3333333,0,0,-1.3333333,481.97787,257.35613)"
         clip-path="url(#clipPath163)" />
    </g>
    <text
       xml:space="preserve"
       style="font-style:normal;font-variant:normal;font-weight:normal;font-stretch:normal;font-size:51.4047px;font-family:Serif;-inkscape-font-specification:Serif;text-align:center;text-anchor:middle;fill:#ffffff;fill-opacity:1;stroke:none;stroke-width:1.6653;stroke-dasharray:none;stroke-opacity:1"
       x="500.33414"
       y="354.4162"
       id="text11"><tspan
         sodipodi:role="line"
         id="tspan11"
         style="font-style:normal;font-variant:normal;font-weight:normal;font-stretch:normal;font-family:Serif;-inkscape-font-specification:Serif;fill:#ffffff;fill-opacity:1;stroke-width:1.6653"
         x="500.33414"
         y="354.4162">MOJAVE VALLEY</tspan><tspan
         sodipodi:role="line"
         style="font-style:normal;font-variant:normal;font-weight:normal;font-stretch:normal;font-family:Serif;-inkscape-font-specification:Serif;fill:#ffffff;fill-opacity:1;stroke-width:1.6653"
         x="500.33414"
         y="418.67209"
         id="tspan12">FINANCIAL SERVICES</tspan></text>
  </g>
</svg>
